<?xml version="1.0" standalone="no"?>
<!DOCTYPE svg PUBLIC "-//W3C//DTD SVG 20010904//EN"
 "http://www.w3.org/TR/2001/REC-SVG-20010904/DTD/svg10.dtd">
<svg version="1.0" xmlns="http://www.w3.org/2000/svg"
 width="512.000000pt" height="512.000000pt" viewBox="0 0 512.000000 512.000000"
 preserveAspectRatio="xMidYMid meet">
<metadata>
Created by potrace 1.11, written by Peter Selinger 2001-2013
</metadata>
<g transform="translate(0.000000,512.000000) scale(0.100000,-0.100000)"
fill="#000000" stroke="none">
<path d="M2235 5020 c-70 -8 -140 -36 -185 -76 -17 -16 -36 -29 -40 -29 -5 0
-12 -4 -17 -9 -5 -5 -3 -6 5 -2 6 4 12 4 12 1 0 -11 -53 -50 -63 -47 -5 1 -5
-2 -2 -8 8 -13 -26 -41 -39 -33 -5 4 -6 1 -2 -5 8 -13 -33 -54 -47 -45 -6 3
-7 1 -3 -5 7 -12 -60 -78 -75 -74 -6 1 -7 -2 -4 -8 8 -13 -26 -41 -39 -33 -5
4 -6 1 -3 -4 8 -13 -27 -46 -37 -36 -4 4 -4 0 0 -10 6 -16 -5 -22 -29 -18 -5
1 -6 -3 -3 -8 8 -13 -34 -52 -47 -44 -6 3 -7 1 -4 -4 9 -14 -42 -65 -56 -56
-5 3 -7 2 -4 -4 8 -13 -31 -55 -44 -47 -5 3 -9 2 -8 -3 4 -23 -2 -35 -17 -29
-8 3 -13 2 -10 -3 8 -12 -29 -43 -39 -34 -4 5 -6 3 -2 -2 8 -14 -19 -48 -33
-40 -6 3 -9 2 -8 -4 4 -15 -62 -82 -74 -75 -6 4 -8 3 -5 -3 9 -14 -32 -55 -45
-47 -6 4 -8 3 -5 -3 8 -12 -37 -56 -47 -46 -4 4 -4 0 0 -10 6 -16 -5 -22 -29
-18 -5 1 -6 -3 -3 -8 8 -13 -34 -52 -47 -44 -6 3 -7 1 -4 -4 8 -13 -17 -36
-28 -25 -5 4 -5 2 -1 -5 3 -6 -5 -23 -19 -37 -14 -14 -25 -28 -25 -31 0 -3 -7
-20 -17 -38 -9 -17 -18 -43 -19 -57 -5 -44 -5 -112 1 -118 2 -3 -1 -12 -8 -20
-8 -10 -8 -13 -1 -9 7 4 15 0 18 -9 9 -24 7 -31 -4 -14 -6 9 -10 10 -10 3 0
-6 5 -15 10 -18 6 -4 8 -11 5 -16 -3 -5 1 -6 10 -3 11 4 14 2 10 -9 -4 -8 0
-17 8 -20 9 -3 14 -17 12 -36 -2 -26 0 -29 11 -20 11 9 19 8 34 -6 20 -18 18
-41 -2 -29 -7 4 -8 2 -4 -4 4 -6 13 -9 22 -5 17 6 56 -25 48 -38 -3 -5 1 -9 9
-9 17 0 59 -44 50 -53 -3 -4 1 -7 10 -7 12 0 16 -7 13 -29 -2 -21 0 -28 10
-24 17 6 18 23 2 23 -6 0 -8 3 -5 7 11 10 57 -38 57 -59 0 -10 5 -18 11 -18 5
0 7 6 3 13 -4 6 5 1 19 -12 15 -14 27 -31 27 -39 0 -9 3 -12 7 -9 9 9 53 -33
53 -50 0 -8 -4 -12 -8 -9 -5 3 -9 -1 -9 -8 0 -8 10 -12 29 -10 21 3 28 -1 28
-13 0 -9 3 -13 7 -10 9 10 53 -33 53 -51 0 -9 3 -12 7 -9 9 9 53 -33 53 -50 0
-8 -5 -11 -12 -7 -7 4 -8 3 -4 -5 6 -9 11 -9 21 -1 9 7 16 6 24 -3 6 -8 8 -17
4 -20 -3 -4 2 -7 11 -7 12 0 16 -5 13 -14 -3 -8 1 -22 8 -33 8 -10 15 -13 15
-7 0 5 -5 15 -12 22 -7 7 -9 12 -5 12 12 0 78 -63 72 -68 -3 -3 5 -10 18 -17
12 -6 21 -17 19 -23 -1 -7 5 -12 13 -12 8 0 15 -5 15 -11 0 -6 -9 -8 -22 -4
-18 5 -20 4 -8 -4 8 -6 23 -8 33 -5 11 4 17 0 17 -11 0 -10 5 -13 12 -9 8 5 9
2 5 -10 -4 -10 -3 -15 3 -11 21 13 31 -7 14 -26 -9 -10 -21 -16 -27 -12 -5 3
-7 2 -4 -4 4 -6 -6 -21 -21 -35 l-28 -25 -50 23 c-79 35 -80 36 -204 69 -52
15 -102 29 -110 32 -8 3 -24 7 -35 8 -11 1 -49 6 -85 10 -36 4 -67 10 -70 14
-11 15 -400 4 -490 -14 -69 -14 -96 -19 -110 -20 -8 -1 -22 -5 -31 -9 -9 -4
-27 -8 -41 -10 -13 -1 -28 -5 -33 -8 -6 -3 -28 -11 -50 -18 -53 -16 -159 -57
-215 -83 -25 -12 -48 -20 -52 -19 -5 1 -8 -3 -8 -9 0 -6 -6 -9 -14 -6 -8 3
-17 -1 -20 -10 -4 -8 -12 -13 -20 -10 -8 3 -13 -1 -12 -11 0 -9 -4 -16 -10
-15 -13 2 -15 -6 -19 -87 -2 -53 0 -68 16 -83 24 -23 26 -45 2 -26 -17 13 -17
13 0 -7 9 -11 14 -24 10 -27 -3 -4 -1 -7 6 -7 8 0 11 7 7 15 -3 8 -1 15 4 15
9 0 14 -14 11 -32 0 -4 6 -5 13 -2 8 3 28 -10 48 -32 18 -20 39 -43 46 -50 7
-8 10 -14 5 -14 -4 0 4 -8 20 -18 15 -10 25 -21 22 -24 -3 -3 7 -11 22 -17 15
-7 39 -27 53 -45 14 -19 29 -32 34 -28 5 3 6 0 2 -6 -4 -7 -2 -12 4 -12 6 0 8
-4 5 -10 -3 -5 -1 -10 5 -10 6 0 36 -23 66 -52 52 -49 54 -53 37 -66 -17 -13
-17 -14 4 -8 16 5 31 -2 57 -25 20 -17 34 -35 31 -39 -3 -4 8 -13 23 -19 15
-7 38 -27 52 -45 14 -19 29 -32 34 -28 5 3 6 0 2 -6 -4 -7 -2 -12 4 -12 6 0 9
-4 5 -9 -3 -5 3 -12 13 -15 20 -7 78 -66 65 -66 -5 0 6 -9 22 -20 17 -11 26
-20 20 -20 -5 -1 1 -7 15 -14 14 -8 53 -43 87 -78 58 -58 61 -64 45 -77 -16
-12 -15 -13 5 -7 16 5 31 -2 57 -25 20 -17 33 -35 30 -40 -5 -8 9 -13 29 -10
11 2 8 -14 -5 -27 -9 -9 -9 -15 1 -24 10 -11 11 -10 6 5 -5 12 -2 17 11 17 14
0 16 -2 6 -9 -8 -4 -13 -11 -13 -15 1 -3 -2 -7 -6 -8 -5 -1 -16 -12 -26 -25
-34 -42 -87 -96 -87 -87 0 5 -7 -2 -16 -14 -11 -16 -20 -20 -32 -13 -9 5 -45
8 -80 6 -48 -3 -76 -11 -119 -35 -66 -37 -69 -40 -110 -100 -36 -52 -63 -148
-51 -179 9 -26 0 -27 -19 -3 -13 15 -13 15 -3 -5 5 -12 14 -25 20 -28 5 -3 7
-12 4 -19 -3 -8 -1 -17 5 -20 6 -4 8 -13 4 -21 -3 -8 -1 -15 3 -15 5 0 20 -20
33 -45 13 -25 28 -45 32 -45 5 0 9 -9 9 -21 0 -13 -4 -18 -12 -13 -7 4 -8 3
-4 -4 4 -6 13 -9 21 -6 8 4 12 11 8 18 -4 6 1 5 10 -3 22 -18 22 -32 -1 -25
-14 5 -15 4 -2 -5 9 -6 19 -6 24 -1 12 12 36 1 36 -19 0 -14 2 -14 11 -1 9 12
10 11 6 -7 -3 -14 0 -21 7 -20 6 1 10 -4 8 -11 -1 -8 2 -11 8 -7 7 4 6 13 -1
28 -9 17 -9 20 1 10 7 -6 20 -9 29 -5 14 5 14 4 1 -13 -14 -17 -14 -18 7 -7
30 16 63 15 63 -2 0 -9 9 -14 20 -13 11 1 20 5 20 10 0 5 -8 6 -17 2 -13 -4
-15 -3 -7 5 6 6 24 13 40 15 46 6 58 9 67 20 5 6 7 3 3 -7 -4 -13 -1 -15 11
-11 12 5 14 3 8 -7 -5 -9 -4 -11 3 -6 9 5 9 13 2 26 -9 17 -7 19 20 15 16 -2
32 0 35 5 3 5 -4 7 -16 5 -21 -4 -21 -4 -3 14 10 10 21 19 24 19 3 0 14 0 25
2 20 1 20 1 0 9 -19 8 -19 8 0 18 11 6 29 32 39 57 11 27 23 43 30 39 6 -4 5
1 -3 10 -12 15 -11 17 3 17 9 0 16 5 16 11 0 5 -5 7 -12 3 -8 -5 -9 -2 -5 10
4 10 7 19 7 22 0 2 8 1 17 -2 17 -5 17 -5 1 6 -24 15 -24 41 0 34 13 -4 13 -2
-3 8 -20 13 -35 45 -15 33 5 -3 10 -2 10 4 0 5 -6 11 -12 14 -7 2 -10 8 -6 12
4 4 16 2 25 -6 14 -11 14 -8 -2 10 -11 14 -15 21 -9 18 7 -4 14 0 18 8 3 8 11
15 18 15 9 0 9 -3 0 -12 -7 -7 -12 -16 -12 -22 0 -5 6 -1 14 9 8 11 12 24 8
29 -3 5 1 7 10 4 8 -4 15 -1 15 7 0 7 -7 11 -16 8 -9 -3 -4 4 12 14 15 11 24
24 20 28 -5 5 -1 4 9 -3 11 -9 18 -10 23 -2 5 8 11 7 22 -2 9 -7 18 -12 20
-10 8 6 23 1 37 -14 9 -8 16 -10 16 -4 0 6 -7 13 -15 16 -8 4 -12 11 -8 17 3
6 1 7 -6 3 -6 -4 -18 -1 -26 8 -9 9 -11 16 -5 19 6 3 5 4 -2 3 -7 -2 -12 -10
-10 -17 2 -8 0 -11 -4 -7 -4 4 -13 3 -21 -3 -21 -18 -15 0 10 27 l23 25 43
-46 c23 -25 38 -45 34 -45 -4 0 6 -9 22 -20 17 -11 26 -20 20 -20 -5 -1 1 -7
15 -14 14 -8 53 -43 87 -78 58 -58 61 -64 45 -77 -16 -12 -15 -13 5 -7 16 5
31 -2 57 -25 20 -17 34 -35 31 -39 -3 -4 8 -13 23 -19 15 -7 38 -27 52 -45 14
-19 29 -32 34 -28 5 3 6 0 2 -6 -4 -7 -2 -12 4 -12 6 0 8 -5 5 -10 -3 -6 -1
-10 5 -10 6 0 36 -23 66 -52 52 -49 54 -53 37 -66 -17 -13 -17 -14 4 -8 16 5
31 -2 57 -25 20 -17 34 -35 31 -39 -3 -4 9 -13 25 -20 17 -7 30 -15 30 -19 0
-3 16 -23 36 -43 19 -21 32 -38 27 -38 -4 0 4 -8 20 -18 15 -10 25 -21 22 -24
-3 -3 7 -11 22 -17 15 -7 39 -27 53 -45 14 -19 29 -32 34 -28 5 3 6 0 2 -6 -4
-7 -2 -12 4 -12 6 0 9 -4 5 -9 -3 -5 4 -12 15 -16 11 -3 35 -24 54 -47 19 -22
39 -37 45 -34 5 4 12 2 15 -2 3 -5 18 -8 33 -6 15 1 31 -3 35 -9 6 -9 8 -9 8
0 0 7 7 10 17 6 12 -5 14 -3 8 8 -6 11 -5 12 6 2 7 -7 18 -13 23 -13 6 0 4 5
-4 10 -13 8 -13 11 1 26 13 12 18 13 24 3 5 -8 4 -10 -3 -5 -8 5 -10 1 -5 -10
4 -11 8 -13 11 -6 2 7 8 10 12 7 5 -3 12 -1 15 5 4 6 1 9 -6 8 -7 -2 -15 5
-17 15 -2 9 2 17 8 17 6 0 8 -5 4 -12 -4 -7 -3 -8 5 -4 9 6 9 11 -1 24 -11 14
-10 15 7 8 15 -5 17 -4 9 4 -12 12 3 60 19 60 5 0 5 -5 1 -12 -4 -7 -3 -8 5
-4 9 6 9 11 -1 23 -11 14 -10 15 12 8 25 -7 25 -7 5 10 -14 12 -15 15 -4 12 9
-3 16 1 16 9 0 7 -5 10 -11 7 -7 -5 -7 -2 0 8 7 8 15 29 19 46 3 18 11 33 16
33 6 0 5 -9 -1 -22 -11 -22 -10 -22 4 -4 18 23 20 36 6 36 -5 0 -7 7 -4 15 4
8 11 12 18 8 7 -4 7 -2 -1 8 -10 12 -10 18 0 28 6 6 13 21 13 32 3 38 4 41 19
36 8 -4 17 -1 21 5 4 6 3 8 -3 5 -17 -11 -23 19 -12 55 6 18 12 41 14 52 2 10
10 25 17 34 10 12 10 14 0 8 -6 -4 -12 -2 -12 3 0 6 4 11 8 11 5 0 7 15 6 32
-1 18 0 37 4 42 3 6 7 24 8 41 1 16 2 30 4 30 1 0 3 27 5 60 2 33 4 65 5 70 0
6 -1 27 -2 48 -3 29 0 36 11 32 10 -4 8 1 -5 16 -17 20 -17 22 -1 16 15 -6 16
-4 4 16 -17 27 -23 112 -9 103 6 -4 14 -2 17 4 4 6 3 10 -2 9 -26 -5 -33 2
-23 20 7 13 7 20 -1 23 -5 2 -11 33 -12 70 -1 36 -5 64 -9 61 -5 -2 -9 8 -10
24 -1 36 -3 43 -15 73 -6 14 -9 29 -6 33 3 4 0 13 -6 20 -5 7 -12 24 -14 37
-3 14 -10 37 -16 52 -6 16 -7 28 -3 28 4 0 1 4 -6 9 -7 4 -14 18 -15 29 -1 12
-5 22 -9 22 -4 0 -8 8 -8 18 0 10 -6 24 -12 31 -11 11 -10 13 4 8 12 -4 15 -2
11 8 -3 8 -9 12 -14 9 -22 -13 -5 11 35 50 42 42 44 43 60 25 19 -23 21 -33 4
-22 -20 12 -39 12 -32 1 4 -6 2 -8 -3 -5 -14 9 -46 -28 -40 -45 3 -8 6 -5 6 7
1 17 3 18 12 5 9 -13 10 -12 5 2 -6 19 9 34 19 18 3 -5 12 -10 18 -10 8 0 8 3
-2 9 -9 6 -10 11 -3 15 11 6 36 -27 27 -36 -2 -2 5 -4 15 -5 11 -1 22 3 25 8
9 14 25 0 18 -16 -4 -11 -1 -13 11 -9 12 4 15 2 11 -9 -4 -9 2 -16 15 -20 14
-4 19 -10 14 -18 -5 -9 -2 -10 9 -6 12 5 14 0 11 -21 -5 -26 -5 -27 11 -7 14
17 16 17 11 2 -5 -16 5 -22 28 -18 5 1 3 -5 -4 -14 -7 -8 -10 -18 -6 -22 3 -3
6 -2 6 4 0 5 7 10 15 10 11 0 12 -4 3 -14 -6 -7 -8 -16 -4 -20 3 -3 6 -1 6 5
0 7 8 12 18 12 14 0 15 -2 2 -10 -13 -8 -13 -10 2 -10 9 0 19 -4 23 -9 3 -6
-4 -8 -16 -6 -12 2 -19 1 -15 -2 7 -7 29 -13 54 -15 7 -1 10 -8 7 -16 -4 -10
0 -12 10 -8 9 3 14 2 12 -2 -7 -10 19 -32 28 -24 4 4 2 -3 -4 -16 -7 -12 -17
-20 -23 -16 -7 4 -8 2 -4 -5 5 -8 12 -9 19 -3 7 5 19 7 27 3 26 -10 70 -54 70
-68 0 -8 4 -12 9 -9 4 3 22 -10 40 -29 33 -36 42 -56 16 -35 -11 9 -19 10 -26
3 -9 -9 0 -13 44 -14 9 0 17 -7 17 -16 0 -9 3 -13 7 -10 3 4 12 2 20 -4 9 -8
10 -15 3 -24 -8 -10 -8 -15 1 -21 8 -4 9 -3 5 4 -4 7 -1 12 7 12 17 0 59 -44
50 -53 -3 -4 0 -7 9 -7 18 0 61 -44 51 -53 -3 -4 1 -7 10 -7 12 0 16 -7 13
-29 -2 -21 0 -28 10 -24 17 6 18 20 2 26 -8 3 -8 6 -2 6 6 1 19 -8 30 -20 16
-17 16 -23 5 -42 -13 -21 -13 -21 6 -5 23 21 40 24 24 4 -8 -9 -8 -16 -2 -20
5 -4 12 -2 16 4 4 6 11 8 16 4 5 -3 6 -10 3 -16 -4 -6 1 -8 16 -3 16 5 20 4
15 -5 -10 -16 16 -32 31 -19 8 6 16 5 25 -4 16 -15 52 -31 45 -19 -7 11 95 9
114 -3 13 -8 13 -7 1 8 -8 10 -9 17 -3 17 6 0 17 -9 25 -20 13 -18 15 -19 21
-5 3 9 2 14 -3 11 -5 -3 -12 1 -15 10 -3 8 -2 12 4 9 6 -3 10 0 10 7 0 7 7 2
16 -10 8 -12 20 -22 26 -22 7 0 3 7 -8 15 -19 15 -19 16 0 28 10 7 26 20 34
29 11 12 20 14 33 7 12 -6 20 -5 24 1 4 6 3 10 -2 9 -20 -3 -23 2 -10 16 9 8
17 20 19 27 4 11 8 11 20 0 13 -10 18 -9 28 3 7 9 20 13 29 10 13 -5 13 -4 4
6 -10 10 -17 9 -33 -6 -23 -21 -28 -4 -5 18 8 8 11 18 7 23 -4 5 0 3 9 -4 16
-12 29 -7 29 12 0 6 -5 4 -10 -4 -5 -8 -10 -10 -10 -5 1 12 25 45 33 45 4 0 3
-7 0 -17 -5 -11 -3 -14 6 -9 7 5 10 17 8 28 -5 16 -3 17 9 7 12 -10 13 -9 7 7
-6 16 -5 17 9 6 13 -10 18 -10 24 -1 4 8 3 9 -4 5 -24 -15 -11 24 13 40 14 9
23 20 20 24 -9 14 31 21 59 10 18 -6 25 -6 21 0 -3 6 -12 10 -20 10 -7 0 -15
6 -18 14 -4 9 0 12 13 9 10 -3 21 1 26 8 5 9 2 11 -9 6 -22 -8 -22 2 1 19 21
17 46 18 36 2 -4 -7 -3 -8 5 -4 9 6 9 11 -1 24 -11 14 -10 15 6 9 16 -6 17 -5
7 7 -10 12 -9 14 7 9 11 -2 23 1 28 8 5 9 2 11 -9 6 -10 -3 -17 -4 -17 0 0 8
33 32 45 33 6 0 3 -5 -5 -10 -8 -5 -10 -10 -4 -10 19 0 24 13 12 29 -7 9 -9
13 -4 9 5 -4 15 -1 23 7 22 23 39 18 18 -5 -15 -16 -16 -23 -6 -33 10 -9 11
-9 6 4 -3 9 1 22 10 29 12 10 13 16 3 27 -9 11 -9 16 3 24 20 13 42 11 33 -3
-4 -7 -3 -8 5 -4 9 6 9 11 -1 24 -11 14 -10 15 6 9 16 -6 17 -5 7 7 -10 12 -9
14 7 9 11 -2 23 1 28 8 5 9 2 11 -9 6 -10 -3 -17 -4 -17 0 0 8 33 32 45 33 6
0 3 -5 -5 -10 -8 -5 -10 -10 -4 -10 19 0 24 13 12 29 -7 9 -9 13 -4 9 5 -4 15
-1 23 7 22 23 39 18 18 -5 -15 -16 -16 -23 -6 -33 10 -9 11 -9 6 4 -3 9 1 22
10 29 12 10 13 15 3 28 -11 12 -10 16 0 20 7 2 22 13 32 25 17 17 21 18 37 6
12 -10 15 -10 9 -1 -4 7 -2 19 4 27 6 8 9 18 7 22 -3 5 3 10 14 10 12 1 17 -3
13 -9 -4 -7 -2 -8 5 -4 9 6 9 11 -1 24 -11 12 -11 16 0 20 7 2 21 13 31 24 11
11 33 20 51 20 24 1 28 3 16 10 -9 5 -21 6 -26 3 -6 -3 -10 -1 -10 4 0 6 5 11
10 11 10 0 30 19 70 68 9 9 16 10 33 1 l22 -12 -20 23 -20 23 23 -12 c22 -12
23 -11 13 7 -13 24 -3 36 16 20 11 -9 12 -7 6 7 -5 15 -3 17 13 11 15 -6 16
-5 7 5 -9 9 -8 17 7 37 11 13 17 28 15 32 -3 5 -1 11 5 15 5 3 10 15 10 26 0
11 3 18 8 16 4 -3 7 28 7 68 0 40 -2 72 -6 70 -6 -4 -35 86 -31 98 1 5 -2 6
-8 2 -5 -3 -10 -2 -10 3 0 5 -18 26 -39 47 -22 22 -37 43 -34 47 2 5 0 7 -5 6
-12 -4 -716 702 -720 721 -1 7 3 11 10 9 7 -3 13 -10 13 -15 0 -6 3 -14 7 -18
9 -9 5 17 -6 33 -13 22 3 27 19 6 14 -18 15 -18 6 6 -8 25 9 57 23 43 3 -4 6
1 6 9 0 9 8 22 17 29 9 8 14 9 10 3 -4 -7 -1 -14 6 -17 9 -3 13 2 12 16 -1 12
5 30 13 40 16 18 17 18 23 0 8 -18 9 -15 9 22 0 9 40 45 51 45 5 0 7 5 4 10
-3 6 1 10 10 10 10 0 13 -5 9 -12 -5 -7 -3 -8 5 -3 9 5 9 11 3 17 -7 7 1 23
25 49 33 35 63 54 48 29 -3 -5 -1 -10 6 -10 6 0 9 8 6 19 -5 20 45 76 57 64 3
-4 6 1 6 9 0 9 8 22 17 29 11 10 14 10 9 2 -4 -7 -2 -13 3 -13 10 0 12 5 11
25 -1 11 25 33 33 28 4 -2 7 3 7 12 0 18 35 67 42 60 3 -3 4 5 3 18 -3 29 5
43 16 26 5 -8 6 1 2 23 -4 25 -1 44 8 55 8 9 9 14 4 11 -6 -3 -11 6 -11 20 -4
74 -10 120 -15 116 -3 -2 -13 12 -22 31 -9 19 -32 52 -51 73 -20 21 -32 43
-28 47 4 5 2 5 -4 2 -14 -8 -156 137 -146 149 4 5 3 6 -2 1 -12 -9 -177 153
-169 167 3 6 3 8 -2 4 -9 -9 -151 122 -147 135 1 5 -2 6 -7 3 -5 -4 -15 -1
-23 6 -7 7 -20 15 -28 17 -118 31 -183 32 -246 6 -20 -8 -41 -12 -47 -8 -6 3
-7 1 -3 -5 4 -7 2 -12 -3 -12 -14 0 -40 -22 -115 -97 -35 -35 -66 -60 -71 -55
-4 4 -5 2 -2 -4 8 -14 -26 -47 -38 -37 -4 5 -6 3 -2 -2 6 -12 -106 -127 -117
-120 -3 3 -4 2 -1 -2 8 -10 -107 -123 -119 -116 -6 3 -8 2 -3 -2 8 -9 -40 -65
-57 -65 -12 0 -162 153 -158 162 1 5 -4 7 -11 5 -6 -1 -11 6 -11 15 1 10 -3
15 -8 12 -10 -7 -455 435 -451 448 2 4 -3 7 -10 5 -6 -1 -11 6 -11 15 1 10 -3
15 -8 12 -6 -4 -29 13 -52 37 -70 75 -150 129 -189 129 -13 0 -27 4 -32 8 -6
4 -37 5 -70 2z m86 -590 c4 0 11 -9 14 -20 4 -11 11 -18 16 -15 5 3 6 -1 3 -9
-3 -9 -11 -13 -17 -9 -6 3 -7 1 -3 -6 6 -8 11 -9 20 -1 10 7 25 -2 59 -39 25
-27 48 -46 51 -43 3 3 6 -2 6 -11 0 -11 -6 -15 -17 -11 -15 5 -15 4 -3 -4 8
-6 18 -8 23 -5 5 3 40 -25 78 -63 50 -49 66 -71 58 -80 -7 -8 -6 -15 2 -20 7
-4 9 -3 6 3 -4 6 0 14 9 17 8 3 12 2 9 -3 -3 -5 3 -12 14 -16 25 -8 35 -34 16
-41 -8 -4 -12 -10 -9 -15 3 -5 12 -2 21 6 14 15 18 13 44 -17 15 -18 26 -39
24 -47 -3 -8 0 -11 8 -8 7 2 23 -4 36 -14 13 -11 18 -19 13 -19 -6 0 -14 5
-17 10 -3 6 -14 9 -23 9 -15 -1 -15 -2 1 -6 9 -2 14 -9 11 -15 -4 -6 -3 -9 2
-6 15 9 54 -10 54 -27 0 -9 4 -14 8 -11 4 2 14 0 22 -6 13 -8 12 -9 -2 -5 -17
6 -19 -16 -3 -30 4 -4 5 -2 1 5 -10 17 5 15 32 -4 21 -15 32 -42 12 -29 -5 3
-10 1 -10 -4 0 -6 -12 -25 -27 -41 -20 -23 -29 -27 -35 -18 -7 10 -8 9 -6 -3
4 -19 -62 -90 -75 -82 -6 3 -7 2 -4 -3 7 -13 -108 -126 -118 -116 -5 4 -5 2
-2 -4 9 -15 -48 -68 -64 -59 -8 6 -10 4 -4 -4 8 -14 -33 -63 -47 -55 -5 3 -7
2 -6 -3 5 -14 -64 -83 -75 -76 -6 3 -7 2 -4 -3 6 -11 -107 -126 -117 -119 -3
3 -4 2 -1 -2 8 -11 -27 -43 -39 -36 -6 3 -8 3 -4 -2 10 -10 -11 -37 -23 -29
-5 3 -9 -2 -9 -10 0 -8 -5 -18 -10 -21 -11 -7 -630 604 -630 622 0 6 -9 13
-21 16 -12 3 -18 10 -14 17 4 7 11 8 19 1 8 -7 17 -6 26 1 12 8 12 9 -2 4 -28
-8 -22 17 11 48 24 23 32 26 49 17 14 -8 23 -8 27 -1 4 6 3 10 -2 9 -19 -3
-33 2 -33 12 0 6 7 8 16 5 8 -3 12 -2 9 4 -3 6 -1 10 4 10 6 0 11 6 11 13 0
17 44 59 53 50 4 -3 7 0 7 8 0 19 64 82 73 73 4 -4 7 -1 7 8 0 21 68 80 82 72
7 -5 8 -3 3 6 -6 10 -4 12 10 6 15 -5 16 -4 6 8 -9 11 -9 16 0 22 8 4 9 3 5
-4 -4 -7 -2 -12 3 -12 6 0 11 8 11 18 0 21 43 66 53 55 4 -3 7 0 7 9 0 18 44
61 53 51 4 -3 7 0 7 8 0 19 64 82 73 73 4 -4 7 0 7 8 0 21 27 43 32 27 2 -7
15 -4 38 10 19 11 29 21 22 21 -7 0 -10 5 -7 11 5 7 14 4 26 -7 22 -19 49 -27
49 -14 0 9 -31 24 -43 21 -5 -1 -6 2 -3 7 2 4 -4 9 -15 9 -17 2 -24 -8 -20
-31 1 -5 -5 -6 -14 -2 -9 3 -13 2 -10 -3 3 -5 1 -12 -5 -16 -24 -15 -7 23 22
51 l33 31 29 -28 c17 -16 33 -29 37 -29z m1539 -1550 c0 -3 -7 -7 -15 -7 -8 0
-15 4 -15 9 0 4 -4 8 -8 8 -11 0 -13 -39 -1 -45 5 -3 6 1 3 9 -8 20 25 14 41
-7 7 -9 18 -17 26 -17 8 0 6 6 -7 15 -10 8 -14 15 -8 15 16 0 35 -25 37 -49 0
-11 5 -17 9 -15 5 3 5 10 2 16 -5 7 -2 8 5 4 7 -5 10 -14 8 -20 -3 -7 -1 -19
5 -27 8 -11 9 -10 4 4 -4 11 0 17 11 17 9 0 14 -3 11 -6 -3 -3 16 -26 43 -51
37 -34 46 -49 39 -59 -8 -9 -7 -14 1 -20 7 -4 9 -3 6 3 -4 6 0 14 9 17 8 3 12
2 9 -4 -3 -6 -2 -10 4 -10 5 0 17 -8 26 -17 16 -16 16 -17 1 -29 -11 -8 -13
-14 -7 -19 6 -3 11 -2 11 3 0 6 6 12 14 15 9 4 24 -9 40 -32 28 -40 33 -56 14
-45 -7 4 -9 3 -5 -1 14 -16 36 -14 30 3 -4 14 -3 15 5 2 6 -8 8 -18 6 -22 -3
-4 2 -8 11 -8 17 0 36 -39 27 -54 -3 -5 0 -6 6 -2 6 3 13 -2 15 -11 4 -16 5
-16 6 -1 0 9 -3 20 -9 23 -5 3 -10 11 -10 17 0 5 8 0 19 -13 10 -13 16 -29 14
-36 -3 -8 0 -11 8 -8 8 2 29 -9 47 -24 30 -25 32 -30 18 -44 -8 -8 -12 -17 -9
-21 3 -3 11 1 17 9 12 16 19 13 59 -32 21 -22 25 -33 16 -38 -8 -6 -10 -4 -4
5 5 9 4 11 -4 6 -20 -13 -1 -27 21 -15 15 8 19 8 14 0 -4 -6 -2 -11 4 -11 6 0
8 -4 5 -10 -3 -5 -11 -10 -16 -10 -6 0 -7 5 -4 10 10 16 -1 11 -16 -7 -12 -14
-12 -16 0 -9 9 6 12 5 9 -5 -3 -8 -11 -13 -17 -12 -6 2 -10 -3 -8 -10 1 -6 -4
-11 -11 -9 -8 1 -11 -1 -8 -6 8 -14 -41 -55 -55 -47 -8 5 -10 4 -5 -3 10 -16
-59 -86 -75 -76 -8 4 -9 3 -5 -5 10 -16 -159 -185 -175 -175 -8 5 -9 3 -4 -5
9 -15 -100 -125 -115 -116 -5 3 -7 0 -5 -7 7 -18 -102 -121 -117 -112 -7 4 -8
3 -4 -5 10 -15 -13 -44 -29 -37 -7 2 -12 -3 -11 -12 0 -9 -5 -16 -11 -15 -7 2
-12 0 -12 -5 1 -4 1 -11 0 -16 0 -4 -137 128 -303 294 -167 166 -302 308 -300
314 2 6 1 8 -3 4 -4 -4 -14 -1 -21 7 -17 17 -18 29 -2 19 7 -4 8 -3 4 4 -4 6
-13 9 -21 5 -11 -4 -13 -1 -9 11 3 9 9 14 13 12 3 -2 12 2 19 10 7 8 10 14 6
14 -3 0 -1 7 6 15 7 8 16 12 21 9 5 -3 9 1 9 9 0 8 16 29 35 46 35 31 63 42
49 19 -4 -7 -3 -8 5 -4 8 6 9 11 2 20 -8 9 -6 18 7 30 10 9 22 13 25 9 4 -3 7
2 7 11 0 13 6 17 18 14 11 -3 19 0 19 8 0 7 -5 10 -11 7 -6 -3 0 4 13 17 19
19 25 20 33 9 7 -10 9 -8 5 8 -5 22 14 48 26 36 4 -3 7 0 7 7 0 21 51 70 72
70 12 0 16 -4 12 -12 -4 -7 -3 -8 4 -4 6 4 9 13 6 21 -4 8 -11 12 -18 8 -6 -4
-5 1 3 10 7 9 20 17 29 17 8 0 12 3 9 7 -12 12 14 31 36 26 16 -4 18 -2 8 5
-11 8 -10 14 9 33 13 13 20 19 17 13 -3 -6 0 -11 7 -11 8 0 11 8 8 20 -3 11
-1 18 4 14 5 -3 27 3 49 13 22 11 32 19 23 20 -9 0 -20 -4 -23 -10 -3 -5 -13
-10 -22 -10 -11 0 -8 7 12 28 15 15 32 27 39 27 6 1 10 7 8 14 -2 9 5 12 22 9
17 -4 23 -1 19 9 -3 7 -10 10 -17 7 -6 -3 6 11 27 31 31 29 41 34 53 24 8 -6
14 -15 14 -19z m-1006 -1066 c4 -10 1 -14 -6 -12 -15 5 -23 28 -10 28 5 0 13
-7 16 -16z m1841 -24 c-3 -5 -12 -10 -18 -10 -7 0 -6 4 3 10 19 12 23 12 15 0z"/>
<path d="M2315 4400 c-3 -5 -1 -10 4 -10 6 0 11 5 11 10 0 6 -2 10 -4 10 -3 0
-8 -4 -11 -10z"/>
<path d="M2164 4370 c0 -13 4 -16 10 -10 7 7 7 13 0 20 -6 6 -10 3 -10 -10z"/>
<path d="M2368 4359 c6 -9 8 -20 4 -24 -4 -5 -1 -5 6 -1 11 6 17 -11 13 -36 0
-5 4 -8 9 -8 6 0 10 6 10 13 0 8 3 7 9 -3 6 -8 7 -18 4 -24 -3 -5 -1 -6 5 -2
9 5 9 13 2 27 -6 11 -15 17 -21 14 -5 -4 -9 0 -9 8 0 8 -10 22 -22 33 -14 12
-18 13 -10 3z"/>
<path d="M2110 4335 c-22 -24 -37 -70 -18 -59 5 3 7 13 6 22 -2 10 3 16 10 14
8 -1 11 1 9 5 -7 11 19 33 29 25 4 -4 4 -1 0 6 -9 16 -9 16 -36 -13z"/>
<path d="M2146 4318 c3 -5 10 -6 15 -3 13 9 11 12 -6 12 -8 0 -12 -4 -9 -9z"/>
<path d="M2037 4262 c-10 -10 -17 -22 -17 -27 0 -4 8 2 19 13 10 12 22 18 26
14 5 -4 5 -1 1 6 -9 16 -10 15 -29 -6z"/>
<path d="M2475 4240 c-4 -6 -4 -14 -1 -17 3 -4 6 -1 6 6 0 7 5 9 10 6 6 -4 7
-11 4 -17 -4 -6 -2 -8 4 -4 6 3 13 -2 15 -11 4 -15 5 -15 6 -2 1 22 -35 54
-44 39z"/>
<path d="M1976 4201 c-14 -15 -15 -24 -7 -38 10 -16 10 -15 8 7 -1 14 3 24 9
23 6 -1 11 5 11 13 0 18 0 18 -21 -5z"/>
<path d="M2530 4191 c0 -5 7 -12 16 -15 14 -5 15 -4 4 9 -14 17 -20 19 -20 6z"/>
<path d="M2563 4153 c10 -3 14 -10 11 -16 -4 -7 -4 -9 1 -5 4 4 15 2 24 -4 10
-8 9 -4 -3 10 -11 12 -26 21 -35 21 -13 -1 -13 -2 2 -6z"/>
<path d="M1895 4100 c3 -5 8 -10 11 -10 2 0 4 5 4 10 0 6 -5 10 -11 10 -5 0
-7 -4 -4 -10z"/>
<path d="M1857 4082 c-12 -13 -13 -21 -6 -32 9 -13 10 -12 6 2 -7 21 3 31 19
17 9 -7 12 -6 10 5 -3 25 -12 27 -29 8z"/>
<path d="M2630 4079 c0 -5 5 -7 10 -4 6 3 10 8 10 11 0 2 -4 4 -10 4 -5 0 -10
-5 -10 -11z"/>
<path d="M2683 4031 c-10 -16 -8 -18 10 -17 12 0 21 -4 20 -10 -1 -6 5 -11 13
-11 10 0 8 7 -8 26 -13 14 -23 27 -23 28 -1 1 -6 -6 -12 -16z"/>
<path d="M1787 4012 c-15 -15 -27 -31 -27 -35 0 -4 13 7 28 23 16 16 33 26 37
22 5 -4 5 -1 1 6 -9 16 -8 16 -39 -16z"/>
<path d="M1717 3942 c-10 -10 -17 -22 -17 -27 0 -4 8 2 19 13 10 12 22 18 26
14 5 -4 5 -1 1 6 -9 16 -10 15 -29 -6z"/>
<path d="M2810 3880 c0 -5 5 -10 11 -10 5 0 7 5 4 10 -3 6 -8 10 -11 10 -2 0
-4 -4 -4 -10z"/>
<path d="M1612 3837 c-17 -18 -19 -24 -7 -24 8 0 13 2 11 5 -3 2 1 10 7 17 9
10 16 10 27 1 13 -10 13 -9 1 7 -17 21 -13 22 -39 -6z"/>
<path d="M2875 3840 c3 -5 8 -10 11 -10 2 0 4 5 4 10 0 6 -5 10 -11 10 -5 0
-7 -4 -4 -10z"/>
<path d="M2856 3822 c-3 -5 1 -9 9 -9 8 0 12 4 9 9 -3 4 -7 8 -9 8 -2 0 -6 -4
-9 -8z"/>
<path d="M3791 2866 c-9 -11 -9 -16 1 -22 7 -4 10 -4 6 1 -4 4 -3 14 3 22 6 7
9 13 6 13 -2 0 -10 -6 -16 -14z"/>
<path d="M3716 2792 c-3 -5 1 -9 9 -9 8 0 12 4 9 9 -3 4 -7 8 -9 8 -2 0 -6 -4
-9 -8z"/>
<path d="M3954 2748 c-4 -6 -3 -8 2 -5 6 3 16 2 24 -4 10 -6 11 -9 3 -9 -7 0
-13 -4 -13 -10 0 -5 3 -9 8 -9 25 4 42 -2 36 -13 -4 -7 -4 -10 1 -6 4 4 15 2
24 -4 10 -8 9 -4 -3 10 -11 12 -25 22 -33 22 -8 0 -12 4 -8 9 3 6 -3 15 -14
21 -14 7 -22 7 -27 -2z"/>
<path d="M3630 2680 c0 -5 7 -7 15 -4 8 4 15 8 15 10 0 2 -7 4 -15 4 -8 0 -15
-4 -15 -10z"/>
<path d="M4070 2639 c0 -5 5 -7 10 -4 6 3 10 8 10 11 0 2 -4 4 -10 4 -5 0 -10
-5 -10 -11z"/>
<path d="M3575 2620 c-3 -6 1 -7 9 -4 18 7 21 14 7 14 -6 0 -13 -4 -16 -10z"/>
<path d="M4123 2590 c-10 -15 -8 -17 10 -16 13 1 21 -4 20 -11 -2 -7 2 -13 7
-13 14 0 12 9 -8 35 -17 22 -19 22 -29 5z"/>
<path d="M3486 2561 c-15 -16 -15 -19 -2 -24 9 -4 18 -1 22 5 4 7 3 8 -4 4 -7
-4 -12 -3 -12 2 0 17 13 22 29 9 14 -11 14 -10 2 6 -16 21 -14 21 -35 -2z"/>
<path d="M3455 2499 c-4 -6 -5 -12 -2 -15 2 -3 7 2 10 11 7 17 1 20 -8 4z"/>
<path d="M4190 2500 c0 -5 5 -10 11 -10 5 0 7 5 4 10 -3 6 -8 10 -11 10 -2 0
-4 -4 -4 -10z"/>
<path d="M3390 2435 c0 -8 2 -15 4 -15 2 0 6 7 10 15 3 8 1 15 -4 15 -6 0 -10
-7 -10 -15z"/>
<path d="M4313 2406 c0 -8 5 -14 11 -13 6 1 10 -8 10 -20 -1 -18 1 -20 17 -10
10 6 17 11 16 12 -1 0 -14 10 -28 23 -19 16 -26 18 -26 8z"/>
<path d="M3314 2389 c-3 -6 -1 -16 5 -22 9 -9 10 -7 5 7 -6 15 -4 17 6 11 9
-5 11 -4 6 3 -9 15 -13 15 -22 1z"/>
<path d="M3246 2321 c-15 -16 -15 -19 -2 -24 9 -4 18 -1 22 5 5 7 2 8 -6 3 -8
-5 -11 -3 -8 6 3 8 12 13 22 11 20 -4 21 4 2 11 -8 3 -21 -2 -30 -12z"/>
<path d="M4394 2318 c-4 -7 -3 -8 4 -4 7 4 12 3 12 -2 0 -6 8 -13 17 -16 15
-6 15 -4 -2 14 -21 23 -22 24 -31 8z"/>
<path d="M4393 2287 c0 -8 6 -14 14 -14 9 0 10 4 2 14 -6 7 -12 13 -14 13 -1
0 -2 -6 -2 -13z"/>
<path d="M3220 2279 c0 -5 5 -7 10 -4 6 3 10 8 10 11 0 2 -4 4 -10 4 -5 0 -10
-5 -10 -11z"/>
<path d="M3210 2251 c0 -6 4 -13 10 -16 6 -3 7 1 4 9 -7 18 -14 21 -14 7z"/>
<path d="M4675 3721 c-3 -5 -2 -12 3 -15 5 -3 9 1 9 9 0 17 -3 19 -12 6z"/>
<path d="M4583 3645 c0 -8 4 -12 9 -9 5 3 6 10 3 15 -9 13 -12 11 -12 -6z"/>
<path d="M4521 3597 c-8 -10 -7 -14 2 -14 8 0 14 6 14 14 0 7 -1 13 -2 13 -2
0 -8 -6 -14 -13z"/>
<path d="M1096 3552 c-3 -5 1 -9 9 -9 8 0 12 4 9 9 -3 4 -7 8 -9 8 -2 0 -6 -4
-9 -8z"/>
<path d="M4461 3536 c-7 -8 -8 -17 -3 -20 6 -3 15 1 21 8 7 8 8 17 3 20 -6 3
-15 -1 -21 -8z"/>
<path d="M1136 3494 c-6 -15 -4 -15 11 -3 15 12 16 12 10 -3 -3 -10 -2 -18 4
-18 14 0 7 32 -7 37 -6 2 -14 -4 -18 -13z"/>
<path d="M4435 3500 c-3 -5 -1 -10 4 -10 6 0 11 5 11 10 0 6 -2 10 -4 10 -3 0
-8 -4 -11 -10z"/>
<path d="M1200 3440 c0 -5 6 -9 13 -7 6 1 11 -4 9 -11 -1 -8 2 -11 8 -7 8 5 7
11 -1 21 -13 16 -29 18 -29 4z"/>
<path d="M4376 3433 c-6 -14 -5 -15 5 -6 7 7 10 15 7 18 -3 3 -9 -2 -12 -12z"/>
<path d="M4355 3400 c-3 -5 -1 -10 4 -10 6 0 11 5 11 10 0 6 -2 10 -4 10 -3 0
-8 -4 -11 -10z"/>
<path d="M4313 3368 c1 -15 6 -23 11 -18 4 4 4 16 -2 26 -9 16 -10 14 -9 -8z"/>
<path d="M1286 3344 c-11 -8 -16 -14 -10 -14 13 0 39 18 34 24 -3 2 -14 -2
-24 -10z"/>
<path d="M4263 3325 c0 -8 4 -12 9 -9 5 3 6 10 3 15 -9 13 -12 11 -12 -6z"/>
<path d="M1356 3297 c3 -10 9 -15 12 -12 3 3 0 11 -7 18 -10 9 -11 8 -5 -6z"/>
<path d="M1390 3241 c0 -6 8 -7 18 -4 15 6 15 5 3 -10 -12 -15 -12 -17 3 -11
9 4 15 12 13 18 -5 14 -37 21 -37 7z"/>
<path d="M1495 3150 c-4 -6 -1 -9 7 -8 7 2 12 -3 11 -9 -2 -7 2 -13 7 -13 14
0 12 16 -4 29 -10 8 -16 9 -21 1z"/>
<path d="M1550 3081 c0 -6 8 -7 18 -4 15 6 15 5 3 -10 -12 -15 -12 -17 3 -11
9 4 15 12 13 18 -5 14 -37 21 -37 7z"/>
<path d="M1623 3025 c0 -8 4 -12 9 -9 5 3 6 10 3 15 -9 13 -12 11 -12 -6z"/>
<path d="M1696 2934 c-6 -15 -4 -15 11 -3 15 12 16 12 10 -3 -3 -10 -2 -18 4
-18 14 0 7 32 -7 37 -6 2 -14 -4 -18 -13z"/>
<path d="M1761 2884 c0 -11 3 -14 6 -6 3 7 2 16 -1 19 -3 4 -6 -2 -5 -13z"/>
<path d="M1850 2790 c-9 -6 -10 -10 -3 -10 6 0 15 5 18 10 8 12 4 12 -15 0z"/>
<path d="M70 2446 c0 -2 7 -7 16 -10 8 -3 12 -2 9 4 -6 10 -25 14 -25 6z"/>
<path d="M184 2354 c2 -11 9 -19 17 -19 8 0 14 -6 14 -12 0 -7 4 -13 8 -14 19
-2 15 9 -12 35 -24 24 -29 25 -27 10z"/>
<path d="M235 2289 c-4 -5 -4 -13 -1 -16 3 -4 6 0 6 8 0 11 2 11 10 -1 6 -9
10 -10 10 -3 0 17 -17 25 -25 12z"/>
<path d="M5030 2259 c0 -5 5 -7 10 -4 6 3 10 8 10 11 0 2 -4 4 -10 4 -5 0 -10
-5 -10 -11z"/>
<path d="M280 2240 c0 -5 5 -10 11 -10 5 0 7 5 4 10 -3 6 -8 10 -11 10 -2 0
-4 -4 -4 -10z"/>
<path d="M342 2206 c5 -5 3 -15 -2 -21 -8 -9 -4 -12 12 -11 13 0 23 -5 23 -11
0 -7 4 -13 8 -14 20 -2 15 9 -16 37 -17 16 -29 25 -25 20z"/>
<path d="M5010 2140 c0 -5 5 -10 11 -10 5 0 7 5 4 10 -3 6 -8 10 -11 10 -2 0
-4 -4 -4 -10z"/>
<path d="M397 2133 c-11 -11 -8 -20 7 -20 8 0 12 6 9 14 -6 15 -7 15 -16 6z"/>
<path d="M464 2074 c2 -11 9 -19 16 -19 7 0 16 -9 21 -20 5 -14 8 -15 8 -4 1
8 -10 26 -23 38 -22 21 -24 21 -22 5z"/>
<path d="M526 2017 c3 -10 9 -15 12 -12 3 3 0 11 -7 18 -10 9 -11 8 -5 -6z"/>
<path d="M500 2000 c-9 -6 -10 -10 -3 -10 6 0 15 5 18 10 8 12 4 12 -15 0z"/>
<path d="M4882 1978 c-15 -15 -16 -31 0 -26 6 2 12 12 14 21 3 20 2 21 -14 5z"/>
<path d="M584 1954 c2 -11 8 -20 14 -20 25 -3 27 -5 12 -14 -9 -6 -10 -10 -3
-10 23 0 22 17 -2 40 -21 20 -23 20 -21 4z"/>
<path d="M4843 1925 c0 -6 6 -12 12 -12 6 0 12 6 12 12 0 6 -6 12 -12 12 -6 0
-12 -6 -12 -12z"/>
<path d="M662 1886 c5 -5 3 -15 -2 -21 -8 -9 -4 -12 12 -11 13 0 23 -5 23 -11
0 -7 4 -13 8 -14 20 -2 15 9 -16 37 -17 16 -29 25 -25 20z"/>
<path d="M4783 1863 c0 -9 4 -10 14 -2 7 6 13 12 13 14 0 1 -6 2 -13 2 -8 0
-14 -6 -14 -14z"/>
<path d="M4750 1842 c0 -5 7 -9 15 -9 8 0 12 4 9 9 -3 4 -9 8 -15 8 -5 0 -9
-4 -9 -8z"/>
<path d="M717 1813 c-11 -11 -8 -20 7 -20 8 0 12 6 9 14 -6 15 -7 15 -16 6z"/>
<path d="M2855 1771 c-3 -5 -2 -12 3 -15 5 -3 9 1 9 9 0 17 -3 19 -12 6z"/>
<path d="M784 1756 c2 -17 36 -51 36 -36 0 6 -7 13 -15 16 -8 4 -13 10 -10 14
3 5 1 11 -4 14 -5 4 -8 0 -7 -8z"/>
<path d="M4663 1745 c0 -8 4 -12 9 -9 5 3 6 10 3 15 -9 13 -12 11 -12 -6z"/>
<path d="M2890 1736 c0 -2 7 -7 16 -10 8 -3 12 -2 9 4 -6 10 -25 14 -25 6z"/>
<path d="M4630 1722 c0 -5 7 -9 15 -9 8 0 12 4 9 9 -3 4 -9 8 -15 8 -5 0 -9
-4 -9 -8z"/>
<path d="M2915 1700 c-3 -6 1 -7 9 -4 18 7 21 14 7 14 -6 0 -13 -4 -16 -10z"/>
<path d="M836 1682 c-3 -5 1 -9 9 -9 8 0 12 4 9 9 -3 4 -7 8 -9 8 -2 0 -6 -4
-9 -8z"/>
<path d="M2958 1663 c7 -3 16 -2 19 1 4 3 -2 6 -13 5 -11 0 -14 -3 -6 -6z"/>
<path d="M904 1634 c2 -10 9 -19 17 -19 8 0 14 -7 14 -15 0 -8 7 -15 15 -15 8
0 20 -11 27 -25 7 -15 13 -19 13 -10 0 9 -20 35 -44 59 -32 32 -44 39 -42 25z"/>
<path d="M3050 1576 c0 -2 7 -7 16 -10 8 -3 12 -2 9 4 -6 10 -25 14 -25 6z"/>
<path d="M950 1561 c0 -6 4 -13 10 -16 6 -3 7 1 4 9 -7 18 -14 21 -14 7z"/>
<path d="M1006 1537 c3 -10 9 -15 12 -12 3 3 0 11 -7 18 -10 9 -11 8 -5 -6z"/>
<path d="M3075 1540 c-3 -6 1 -7 9 -4 18 7 21 14 7 14 -6 0 -13 -4 -16 -10z"/>
<path d="M3110 1530 c0 -5 5 -10 11 -10 5 0 7 5 4 10 -3 6 -8 10 -11 10 -2 0
-4 -4 -4 -10z"/>
<path d="M980 1520 c-9 -6 -10 -10 -3 -10 6 0 15 5 18 10 8 12 4 12 -15 0z"/>
<path d="M1064 1473 c2 -10 9 -18 17 -18 8 -1 13 -7 11 -14 -1 -7 2 -9 9 -6 7
5 3 15 -12 31 -27 29 -28 29 -25 7z"/>
<path d="M3156 1478 c3 -5 10 -6 15 -3 13 9 11 12 -6 12 -8 0 -12 -4 -9 -9z"/>
<path d="M3177 1463 c-8 -12 30 -29 40 -19 4 3 -1 6 -9 6 -9 0 -18 5 -20 12
-3 9 -6 9 -11 1z"/>
<path d="M3230 1401 c0 -6 8 -7 18 -4 15 6 15 5 3 -10 -12 -15 -12 -17 3 -11
9 4 15 12 13 18 -5 14 -37 21 -37 7z"/>
<path d="M4256 1327 c3 -10 9 -15 12 -12 3 3 0 11 -7 18 -10 9 -11 8 -5 -6z"/>
<path d="M3336 1312 c-3 -5 1 -9 9 -9 8 0 12 4 9 9 -3 4 -7 8 -9 8 -2 0 -6 -4
-9 -8z"/>
<path d="M4224 1305 c-10 -8 -14 -15 -8 -15 6 0 17 7 24 15 16 19 9 19 -16 0z"/>
<path d="M3376 1254 c-6 -15 -4 -15 11 -3 15 12 16 12 10 -3 -3 -10 -2 -18 4
-18 14 0 7 32 -7 37 -6 2 -14 -4 -18 -13z"/>
<path d="M3440 1200 c0 -5 6 -9 13 -7 6 1 11 -4 9 -11 -1 -8 2 -11 8 -7 8 5 7
11 -1 21 -13 16 -29 18 -29 4z"/>
<path d="M2880 1160 c-9 -6 -10 -10 -3 -10 6 0 15 5 18 10 8 12 4 12 -15 0z"/>
<path d="M4030 1121 c0 -6 4 -12 8 -15 5 -3 9 1 9 9 0 8 -4 15 -9 15 -4 0 -8
-4 -8 -9z"/>
<path d="M3526 1104 c-11 -8 -16 -14 -10 -14 13 0 39 18 34 24 -3 2 -14 -2
-24 -10z"/>
<path d="M1330 1080 c0 -5 5 -10 10 -10 6 0 10 5 10 10 0 6 -4 10 -10 10 -5 0
-10 -4 -10 -10z"/>
<path d="M3980 1080 c0 -5 5 -10 11 -10 5 0 7 -5 3 -12 -4 -7 -3 -8 5 -4 9 6
9 11 0 22 -14 17 -19 18 -19 4z"/>
<path d="M3957 1043 c3 -7 6 -13 8 -13 2 0 5 6 8 13 3 8 -1 14 -8 14 -7 0 -11
-6 -8 -14z"/>
<path d="M1476 1042 c-3 -5 1 -9 9 -9 8 0 12 4 9 9 -3 4 -7 8 -9 8 -2 0 -6 -4
-9 -8z"/>
<path d="M3689 1014 c6 -12 7 -24 3 -28 -3 -4 2 -4 12 0 13 5 17 4 12 -4 -5
-8 -2 -10 10 -5 15 5 14 7 -2 16 -11 6 -25 18 -32 26 -11 14 -12 13 -3 -5z"/>
<path d="M1544 994 c2 -10 9 -19 17 -19 8 0 14 -7 14 -15 0 -8 7 -15 15 -15 8
0 20 -11 27 -25 7 -15 13 -19 13 -10 0 9 -20 35 -44 59 -32 32 -44 39 -42 25z"/>
<path d="M3793 988 c-1 -10 2 -18 8 -18 5 0 8 5 7 12 -2 7 2 12 9 13 22 0 22
11 0 11 -15 0 -24 -6 -24 -18z"/>
<path d="M3755 990 c-3 -6 1 -7 9 -4 18 7 21 14 7 14 -6 0 -13 -4 -16 -10z"/>
<path d="M3835 980 c-3 -6 1 -7 9 -4 18 7 21 14 7 14 -6 0 -13 -4 -16 -10z"/>
<path d="M1590 921 c0 -6 4 -13 10 -16 6 -3 7 1 4 9 -7 18 -14 21 -14 7z"/>
<path d="M1646 897 c3 -10 9 -15 12 -12 3 3 0 11 -7 18 -10 9 -11 8 -5 -6z"/>
<path d="M2870 900 c0 -5 5 -10 11 -10 5 0 7 5 4 10 -3 6 -8 10 -11 10 -2 0
-4 -4 -4 -10z"/>
<path d="M1620 880 c-9 -6 -10 -10 -3 -10 6 0 15 5 18 10 8 12 4 12 -15 0z"/>
<path d="M1704 834 c2 -11 8 -20 14 -20 25 -3 27 -5 12 -14 -9 -6 -10 -10 -3
-10 23 0 22 17 -2 40 -21 20 -23 20 -21 4z"/>
<path d="M2869 797 c6 -8 7 -18 3 -22 -4 -5 -1 -5 6 -1 10 6 10 11 1 22 -6 8
-14 14 -16 14 -3 0 0 -6 6 -13z"/>
<path d="M634 783 c2 -9 8 -18 15 -19 6 -1 7 0 1 3 -5 2 -8 9 -5 13 3 5 1 11
-4 14 -5 4 -8 -2 -7 -11z"/>
<path d="M1782 766 c5 -5 3 -15 -2 -21 -8 -9 -4 -12 12 -11 13 0 23 -5 23 -11
0 -7 4 -13 8 -14 20 -2 15 9 -16 37 -17 16 -29 25 -25 20z"/>
<path d="M660 740 c0 -5 5 -10 11 -10 5 0 7 5 4 10 -3 6 -8 10 -11 10 -2 0 -4
-4 -4 -10z"/>
<path d="M1190 719 c0 -5 5 -7 10 -4 6 3 10 8 10 11 0 2 -4 4 -10 4 -5 0 -10
-5 -10 -11z"/>
<path d="M668 703 c6 -2 18 -2 25 0 6 3 1 5 -13 5 -14 0 -19 -2 -12 -5z"/>
<path d="M1837 693 c-11 -11 -8 -20 7 -20 8 0 12 6 9 14 -6 15 -7 15 -16 6z"/>
<path d="M1904 634 c2 -11 9 -19 16 -19 7 0 16 -9 21 -20 5 -14 8 -15 8 -4 1
8 -10 26 -23 38 -22 21 -24 21 -22 5z"/>
<path d="M774 616 c1 -8 5 -18 8 -22 4 -3 5 1 4 10 -1 8 -5 18 -8 22 -4 3 -5
-1 -4 -10z"/>
<path d="M1033 613 c0 -11 7 -20 14 -20 10 0 10 4 1 16 -7 9 -13 18 -15 20 -1
2 -1 -5 0 -16z"/>
<path d="M976 607 c3 -10 9 -15 12 -12 3 3 0 11 -7 18 -10 9 -11 8 -5 -6z"/>
<path d="M875 599 c-3 -5 1 -6 10 -3 10 4 14 1 12 -7 -2 -8 -2 -11 0 -6 3 4 8
5 12 3 4 -3 8 1 8 7 0 15 -34 20 -42 6z"/>
<path d="M850 581 c0 -6 4 -13 10 -16 6 -3 7 1 4 9 -7 18 -14 21 -14 7z"/>
<path d="M996 582 c-3 -5 1 -9 9 -9 8 0 12 4 9 9 -3 4 -7 8 -9 8 -2 0 -6 -4
-9 -8z"/>
<path d="M1966 577 c3 -10 9 -15 12 -12 3 3 0 11 -7 18 -10 9 -11 8 -5 -6z"/>
<path d="M1940 560 c-9 -6 -10 -10 -3 -10 6 0 15 5 18 10 8 12 4 12 -15 0z"/>
<path d="M2815 560 c-3 -5 -1 -10 4 -10 6 0 11 5 11 10 0 6 -2 10 -4 10 -3 0
-8 -4 -11 -10z"/>
<path d="M2024 514 c2 -11 8 -20 14 -20 25 -3 27 -5 12 -14 -9 -6 -10 -10 -3
-10 23 0 22 17 -2 40 -21 20 -23 20 -21 4z"/>
<path d="M2104 434 c2 -11 9 -19 17 -19 8 0 14 -6 14 -12 0 -7 4 -13 8 -14 19
-2 15 9 -12 35 -24 24 -29 25 -27 10z"/>
<path d="M2787 439 c7 -7 15 -10 18 -7 3 3 -2 9 -12 12 -14 6 -15 5 -6 -5z"/>
<path d="M2075 431 c-3 -5 -2 -12 3 -15 5 -3 9 1 9 9 0 17 -3 19 -12 6z"/>
<path d="M2155 369 c-4 -5 -4 -13 -1 -16 3 -4 6 0 6 8 0 11 2 11 10 -1 6 -9
10 -10 10 -3 0 17 -17 25 -25 12z"/>
<path d="M2200 320 c0 -5 5 -10 11 -10 5 0 7 5 4 10 -3 6 -8 10 -11 10 -2 0
-4 -4 -4 -10z"/>
<path d="M2262 286 c5 -5 3 -15 -2 -21 -8 -9 -4 -12 12 -11 13 0 23 -5 23 -11
0 -7 4 -13 8 -14 20 -2 15 9 -16 37 -17 16 -29 25 -25 20z"/>
<path d="M2317 213 c-11 -11 -8 -20 7 -20 8 0 12 6 9 14 -6 15 -7 15 -16 6z"/>
<path d="M2675 199 c-3 -4 2 -6 10 -5 21 3 28 13 10 13 -9 0 -18 -4 -20 -8z"/>
<path d="M2384 154 c2 -11 9 -19 17 -19 7 0 15 -8 17 -17 3 -13 -1 -16 -15
-12 -14 5 -15 4 -3 -4 35 -26 40 15 6 47 -22 21 -24 21 -22 5z"/>
<path d="M2473 85 c0 -8 4 -15 9 -15 4 0 8 4 8 9 0 6 -4 12 -8 15 -5 3 -9 -1
-9 -9z"/>
<path d="M2505 80 c-3 -5 -1 -10 4 -10 6 0 11 5 11 10 0 6 -2 10 -4 10 -3 0
-8 -4 -11 -10z"/>
<path d="M2535 60 c3 -5 8 -10 11 -10 2 0 4 5 4 10 0 6 -5 10 -11 10 -5 0 -7
-4 -4 -10z"/>
</g>
</svg>
